<mxfile host="app.diagrams.net" modified="2023-06-07T18:45:28.767Z" agent="Mozilla/5.0 (Windows NT 10.0; Win64; x64) AppleWebKit/537.36 (KHTML, like Gecko) Chrome/114.0.0.0 Safari/537.36" etag="qscHn2JXHD1_6_czHTM8" version="21.3.7" type="device">
  <diagram name="Page-1" id="2eoWKdK1u0_-MyD_fxD5">
    <mxGraphModel dx="1799" dy="1001" grid="1" gridSize="10" guides="1" tooltips="1" connect="1" arrows="1" fold="1" page="1" pageScale="1" pageWidth="827" pageHeight="1169" math="0" shadow="0">
      <root>
        <mxCell id="0" />
        <mxCell id="1" parent="0" />
        <mxCell id="gDdEkOJ7wqpKF4ZCGXuV-1" value="&lt;font style=&quot;font-size: 25px;&quot;&gt;Pecnosacījuma testa koda UML diagrammas&lt;/font&gt;" style="text;html=1;align=center;verticalAlign=middle;resizable=0;points=[];autosize=1;strokeColor=none;fillColor=none;" parent="1" vertex="1">
          <mxGeometry x="154" y="13" width="520" height="40" as="geometry" />
        </mxCell>
        <mxCell id="gDdEkOJ7wqpKF4ZCGXuV-8" value="&lt;font style=&quot;font-size: 14px;&quot;&gt;2.1. Izplāno un vizualizē savu projektu pirms tā izstrādes uzsākšanas&lt;br&gt;&amp;nbsp;izstrādājot divas no mācību procesa laikā apskatītajām UML diagrammām &lt;br&gt;&lt;/font&gt;&lt;div style=&quot;font-size: 14px;&quot;&gt;&lt;span style=&quot;background-color: initial;&quot;&gt;&lt;font style=&quot;font-size: 14px;&quot;&gt;(Klašu, Pakotņu, Objektu, Komponentu, Izvietojuma, Saliktās struktūras, Aktivitāšu,&lt;/font&gt;&lt;/span&gt;&lt;/div&gt;&lt;font style=&quot;font-size: 14px;&quot;&gt;&lt;font style=&quot;font-size: 14px;&quot;&gt;Sekvenču, Lietojumgadījumu, Stāvokļu, Komunikācijas, Laika).&lt;br&gt;&lt;/font&gt;&lt;span style=&quot;font-variant-numeric: normal; font-variant-east-asian: normal; font-variant-alternates: normal; vertical-align: baseline;&quot;&gt;&lt;br&gt;Lietotājs atbild uz katru jautājumu 1 reizi, nesaņemot tūlītēju atbildes novērtējumu. Beigās paziņo, cik jautājumi atbildēti pareizi &lt;br&gt;un izdrukā jautājumu sarakstu, uz kuriem atbildēts nepareizi.&lt;br&gt;&lt;/span&gt;&lt;span style=&quot;font-variant-numeric: normal; font-variant-east-asian: normal; font-variant-alternates: normal; vertical-align: baseline;&quot;&gt;Tests satur 10 jautājumus (&lt;/span&gt;&lt;span style=&quot;font-variant-numeric: normal; font-variant-east-asian: normal; font-variant-alternates: normal; vertical-align: baseline;&quot;&gt;izstrāde notiek programmēšanas valodā C++&lt;/span&gt;&lt;span style=&quot;font-variant-numeric: normal; font-variant-east-asian: normal; font-variant-alternates: normal; vertical-align: baseline;&quot;&gt;), katram jautājumam 4 atbilžu varianti, no kuriem&lt;br&gt;pareizi ir 2 vai 3 atbilžu varianti.&lt;br&gt;&lt;/span&gt;&lt;span style=&quot;font-variant-numeric: normal; font-variant-east-asian: normal; font-variant-alternates: normal; vertical-align: baseline;&quot;&gt;Izstrādāt mācību materiālu un elektronisko testu par tēmu &lt;/span&gt;&lt;span style=&quot;font-variant-numeric: normal; font-variant-east-asian: normal; font-variant-alternates: normal; vertical-align: baseline;&quot;&gt;&quot;Cikls ar pēcnosacījumu programmēšanas valodā C++&quot;&lt;/span&gt;&lt;span style=&quot;font-variant-numeric: normal; font-variant-east-asian: normal; font-variant-alternates: normal; vertical-align: baseline;&quot;&gt;.&lt;/span&gt;&lt;font style=&quot;font-size: 14px;&quot;&gt;&lt;p style=&quot;&quot;&gt;&lt;/p&gt;&lt;span style=&quot;&quot; id=&quot;docs-internal-guid-f3b31d3f-7fff-7fa1-d7c9-b5822b966a4c&quot;&gt;&lt;/span&gt;&lt;/font&gt;&lt;/font&gt;" style="text;html=1;align=left;verticalAlign=middle;resizable=0;points=[];autosize=1;strokeColor=none;fillColor=none;" parent="1" vertex="1">
          <mxGeometry x="8" y="70" width="810" height="200" as="geometry" />
        </mxCell>
        <mxCell id="EPJfToF9s4aTxL4ATbzc-3" value="main" style="swimlane;fontStyle=1;align=center;verticalAlign=top;childLayout=stackLayout;horizontal=1;startSize=26;horizontalStack=0;resizeParent=1;resizeParentMax=0;resizeLast=0;collapsible=1;marginBottom=0;whiteSpace=wrap;html=1;" parent="1" vertex="1">
          <mxGeometry x="30" y="364.95" width="760" height="220" as="geometry" />
        </mxCell>
        <mxCell id="EPJfToF9s4aTxL4ATbzc-4" value="+ Atbilde: int&lt;br&gt;+ Jautajums: String []&lt;br&gt;+ NepareizasAtbildesSk: int&lt;br&gt;+ PareizasAtbildesSk: int&lt;br&gt;+ NepareizasAtbildes: int[]&lt;br&gt;- x: int&lt;br&gt;+ y: int" style="text;strokeColor=none;fillColor=none;align=left;verticalAlign=top;spacingLeft=4;spacingRight=4;overflow=hidden;rotatable=0;points=[[0,0.5],[1,0.5]];portConstraint=eastwest;whiteSpace=wrap;html=1;" parent="EPJfToF9s4aTxL4ATbzc-3" vertex="1">
          <mxGeometry y="26" width="760" height="114" as="geometry" />
        </mxCell>
        <mxCell id="EPJfToF9s4aTxL4ATbzc-5" value="" style="line;strokeWidth=1;fillColor=none;align=left;verticalAlign=middle;spacingTop=-1;spacingLeft=3;spacingRight=3;rotatable=0;labelPosition=right;points=[];portConstraint=eastwest;strokeColor=inherit;" parent="EPJfToF9s4aTxL4ATbzc-3" vertex="1">
          <mxGeometry y="140" width="760" height="8" as="geometry" />
        </mxCell>
        <mxCell id="EPJfToF9s4aTxL4ATbzc-6" value="- Rezultats(Jautajums: String [], NepareizasAtbildesSk: int, PareizasAtbildesSk: int,PareizasAtbildes int[],NepareizasAtbildes: int[],y: int): void" style="text;strokeColor=none;fillColor=none;align=left;verticalAlign=top;spacingLeft=4;spacingRight=4;overflow=hidden;rotatable=0;points=[[0,0.5],[1,0.5]];portConstraint=eastwest;whiteSpace=wrap;html=1;" parent="EPJfToF9s4aTxL4ATbzc-3" vertex="1">
          <mxGeometry y="148" width="760" height="72" as="geometry" />
        </mxCell>
        <mxCell id="EPJfToF9s4aTxL4ATbzc-15" value="" style="ellipse;html=1;shape=startState;fillColor=#000000;strokeColor=#ff0000;" parent="1" vertex="1">
          <mxGeometry x="1101" y="97.04999999999995" width="30" height="30" as="geometry" />
        </mxCell>
        <mxCell id="EPJfToF9s4aTxL4ATbzc-16" value="" style="edgeStyle=orthogonalEdgeStyle;html=1;verticalAlign=bottom;endArrow=open;endSize=8;strokeColor=#ff0000;rounded=0;entryX=0.5;entryY=0;entryDx=0;entryDy=0;" parent="1" source="EPJfToF9s4aTxL4ATbzc-15" target="EPJfToF9s4aTxL4ATbzc-19" edge="1">
          <mxGeometry relative="1" as="geometry">
            <mxPoint x="1116" y="170" as="targetPoint" />
            <Array as="points" />
          </mxGeometry>
        </mxCell>
        <mxCell id="68vHjh__lF7inWfUQHhF-6" style="edgeStyle=orthogonalEdgeStyle;rounded=0;orthogonalLoop=1;jettySize=auto;html=1;entryX=0.5;entryY=0;entryDx=0;entryDy=0;exitX=0.955;exitY=0.723;exitDx=0;exitDy=0;exitPerimeter=0;" edge="1" parent="1" source="EPJfToF9s4aTxL4ATbzc-17" target="68vHjh__lF7inWfUQHhF-3">
          <mxGeometry relative="1" as="geometry" />
        </mxCell>
        <mxCell id="68vHjh__lF7inWfUQHhF-13" style="edgeStyle=orthogonalEdgeStyle;rounded=0;orthogonalLoop=1;jettySize=auto;html=1;exitX=0.455;exitY=0.778;exitDx=0;exitDy=0;exitPerimeter=0;entryX=0.5;entryY=0;entryDx=0;entryDy=0;" edge="1" parent="1" source="EPJfToF9s4aTxL4ATbzc-17" target="68vHjh__lF7inWfUQHhF-38">
          <mxGeometry relative="1" as="geometry">
            <mxPoint x="1114" y="320" as="targetPoint" />
          </mxGeometry>
        </mxCell>
        <mxCell id="EPJfToF9s4aTxL4ATbzc-17" value="" style="shape=line;html=1;strokeWidth=6;strokeColor=#ff0000;" parent="1" vertex="1">
          <mxGeometry x="720" y="270" width="870" height="10" as="geometry" />
        </mxCell>
        <mxCell id="EPJfToF9s4aTxL4ATbzc-20" style="edgeStyle=orthogonalEdgeStyle;rounded=0;orthogonalLoop=1;jettySize=auto;html=1;entryX=0.455;entryY=0.19;entryDx=0;entryDy=0;entryPerimeter=0;" parent="1" source="EPJfToF9s4aTxL4ATbzc-19" target="EPJfToF9s4aTxL4ATbzc-17" edge="1">
          <mxGeometry relative="1" as="geometry" />
        </mxCell>
        <mxCell id="EPJfToF9s4aTxL4ATbzc-19" value="PecnosacījumaTests main.cpp &lt;br&gt;Startēšana" style="rounded=1;whiteSpace=wrap;html=1;" parent="1" vertex="1">
          <mxGeometry x="1056" y="170" width="120" height="60" as="geometry" />
        </mxCell>
        <mxCell id="68vHjh__lF7inWfUQHhF-5" style="edgeStyle=orthogonalEdgeStyle;rounded=0;orthogonalLoop=1;jettySize=auto;html=1;entryX=0.5;entryY=0;entryDx=0;entryDy=0;" edge="1" parent="1" source="68vHjh__lF7inWfUQHhF-3" target="68vHjh__lF7inWfUQHhF-4">
          <mxGeometry relative="1" as="geometry" />
        </mxCell>
        <mxCell id="68vHjh__lF7inWfUQHhF-3" value="PecnosacījumaTests main.cpp &lt;br&gt;Aizvēršana" style="rounded=1;whiteSpace=wrap;html=1;" vertex="1" parent="1">
          <mxGeometry x="1490" y="2430" width="120" height="60" as="geometry" />
        </mxCell>
        <mxCell id="68vHjh__lF7inWfUQHhF-4" value="" style="ellipse;html=1;shape=endState;fillColor=#000000;strokeColor=#ff0000;" vertex="1" parent="1">
          <mxGeometry x="1535" y="2529" width="30" height="30" as="geometry" />
        </mxCell>
        <mxCell id="68vHjh__lF7inWfUQHhF-8" value="" style="endArrow=classic;html=1;rounded=0;" edge="1" parent="1">
          <mxGeometry width="50" height="50" relative="1" as="geometry">
            <mxPoint x="1485" y="330" as="sourcePoint" />
            <mxPoint x="1535" y="330" as="targetPoint" />
          </mxGeometry>
        </mxCell>
        <mxCell id="68vHjh__lF7inWfUQHhF-9" value="" style="endArrow=classic;html=1;rounded=0;" edge="1" parent="1">
          <mxGeometry width="50" height="50" relative="1" as="geometry">
            <mxPoint x="1485" y="410" as="sourcePoint" />
            <mxPoint x="1535" y="410" as="targetPoint" />
          </mxGeometry>
        </mxCell>
        <mxCell id="68vHjh__lF7inWfUQHhF-10" value="" style="endArrow=classic;html=1;rounded=0;" edge="1" parent="1">
          <mxGeometry width="50" height="50" relative="1" as="geometry">
            <mxPoint x="1485" y="480" as="sourcePoint" />
            <mxPoint x="1535" y="480" as="targetPoint" />
          </mxGeometry>
        </mxCell>
        <mxCell id="68vHjh__lF7inWfUQHhF-11" value="" style="endArrow=classic;html=1;rounded=0;" edge="1" parent="1">
          <mxGeometry width="50" height="50" relative="1" as="geometry">
            <mxPoint x="1485" y="570" as="sourcePoint" />
            <mxPoint x="1535" y="570" as="targetPoint" />
          </mxGeometry>
        </mxCell>
        <mxCell id="68vHjh__lF7inWfUQHhF-41" style="edgeStyle=orthogonalEdgeStyle;rounded=0;orthogonalLoop=1;jettySize=auto;html=1;" edge="1" parent="1" source="68vHjh__lF7inWfUQHhF-12" target="68vHjh__lF7inWfUQHhF-40">
          <mxGeometry relative="1" as="geometry" />
        </mxCell>
        <mxCell id="68vHjh__lF7inWfUQHhF-12" value="Sākt testu" style="rounded=1;whiteSpace=wrap;html=1;" vertex="1" parent="1">
          <mxGeometry x="1057" y="410" width="120" height="60" as="geometry" />
        </mxCell>
        <mxCell id="68vHjh__lF7inWfUQHhF-17" style="edgeStyle=orthogonalEdgeStyle;rounded=0;orthogonalLoop=1;jettySize=auto;html=1;entryX=0.5;entryY=0;entryDx=0;entryDy=0;" edge="1" parent="1" source="68vHjh__lF7inWfUQHhF-14" target="68vHjh__lF7inWfUQHhF-16">
          <mxGeometry relative="1" as="geometry" />
        </mxCell>
        <mxCell id="68vHjh__lF7inWfUQHhF-14" value="Jautājuma [x] izvade" style="whiteSpace=wrap;html=1;rounded=1;" vertex="1" parent="1">
          <mxGeometry x="1056" y="590" width="120" height="60" as="geometry" />
        </mxCell>
        <mxCell id="68vHjh__lF7inWfUQHhF-21" style="edgeStyle=orthogonalEdgeStyle;rounded=0;orthogonalLoop=1;jettySize=auto;html=1;entryX=0.5;entryY=0;entryDx=0;entryDy=0;" edge="1" parent="1" source="68vHjh__lF7inWfUQHhF-16" target="68vHjh__lF7inWfUQHhF-20">
          <mxGeometry relative="1" as="geometry" />
        </mxCell>
        <mxCell id="68vHjh__lF7inWfUQHhF-16" value="Atbildes ievade" style="rounded=1;whiteSpace=wrap;html=1;" vertex="1" parent="1">
          <mxGeometry x="1056" y="690" width="120" height="60" as="geometry" />
        </mxCell>
        <mxCell id="68vHjh__lF7inWfUQHhF-22" style="edgeStyle=orthogonalEdgeStyle;rounded=0;orthogonalLoop=1;jettySize=auto;html=1;entryX=0.5;entryY=1;entryDx=0;entryDy=0;" edge="1" parent="1" source="68vHjh__lF7inWfUQHhF-20" target="68vHjh__lF7inWfUQHhF-23">
          <mxGeometry relative="1" as="geometry">
            <mxPoint x="960" y="710" as="targetPoint" />
            <Array as="points">
              <mxPoint x="960" y="834" />
              <mxPoint x="960" y="700" />
            </Array>
          </mxGeometry>
        </mxCell>
        <mxCell id="68vHjh__lF7inWfUQHhF-27" style="edgeStyle=orthogonalEdgeStyle;rounded=0;orthogonalLoop=1;jettySize=auto;html=1;entryX=0.5;entryY=0;entryDx=0;entryDy=0;" edge="1" parent="1" source="68vHjh__lF7inWfUQHhF-20" target="68vHjh__lF7inWfUQHhF-26">
          <mxGeometry relative="1" as="geometry" />
        </mxCell>
        <mxCell id="68vHjh__lF7inWfUQHhF-20" value="Atbilde&amp;gt;4||Atbilde&amp;lt;1" style="rhombus;whiteSpace=wrap;html=1;" vertex="1" parent="1">
          <mxGeometry x="1049" y="779" width="134" height="110" as="geometry" />
        </mxCell>
        <mxCell id="68vHjh__lF7inWfUQHhF-24" style="edgeStyle=orthogonalEdgeStyle;rounded=0;orthogonalLoop=1;jettySize=auto;html=1;" edge="1" parent="1" source="68vHjh__lF7inWfUQHhF-23">
          <mxGeometry relative="1" as="geometry">
            <mxPoint x="1100" y="570" as="targetPoint" />
            <Array as="points">
              <mxPoint x="960" y="570" />
            </Array>
          </mxGeometry>
        </mxCell>
        <mxCell id="68vHjh__lF7inWfUQHhF-23" value="Notīrīt ekrānu" style="rounded=1;whiteSpace=wrap;html=1;" vertex="1" parent="1">
          <mxGeometry x="900" y="640" width="120" height="60" as="geometry" />
        </mxCell>
        <mxCell id="68vHjh__lF7inWfUQHhF-28" style="edgeStyle=orthogonalEdgeStyle;rounded=0;orthogonalLoop=1;jettySize=auto;html=1;exitX=0;exitY=0.5;exitDx=0;exitDy=0;" edge="1" parent="1" source="68vHjh__lF7inWfUQHhF-26" target="68vHjh__lF7inWfUQHhF-29">
          <mxGeometry relative="1" as="geometry">
            <mxPoint x="980" y="1060" as="targetPoint" />
          </mxGeometry>
        </mxCell>
        <mxCell id="68vHjh__lF7inWfUQHhF-34" style="edgeStyle=orthogonalEdgeStyle;rounded=0;orthogonalLoop=1;jettySize=auto;html=1;entryX=0.5;entryY=0;entryDx=0;entryDy=0;exitX=1;exitY=0.5;exitDx=0;exitDy=0;" edge="1" parent="1" source="68vHjh__lF7inWfUQHhF-26" target="68vHjh__lF7inWfUQHhF-65">
          <mxGeometry relative="1" as="geometry" />
        </mxCell>
        <mxCell id="68vHjh__lF7inWfUQHhF-26" value="Atbilde==Rezultāts [x]" style="rhombus;whiteSpace=wrap;html=1;" vertex="1" parent="1">
          <mxGeometry x="1044" y="920" width="146" height="120" as="geometry" />
        </mxCell>
        <mxCell id="68vHjh__lF7inWfUQHhF-47" style="edgeStyle=orthogonalEdgeStyle;rounded=0;orthogonalLoop=1;jettySize=auto;html=1;entryX=0.5;entryY=0;entryDx=0;entryDy=0;" edge="1" parent="1" source="68vHjh__lF7inWfUQHhF-29" target="68vHjh__lF7inWfUQHhF-48">
          <mxGeometry relative="1" as="geometry">
            <mxPoint x="1116" y="1270" as="targetPoint" />
            <Array as="points">
              <mxPoint x="989" y="1340" />
              <mxPoint x="1137" y="1340" />
            </Array>
          </mxGeometry>
        </mxCell>
        <mxCell id="68vHjh__lF7inWfUQHhF-29" value="PareizasAtbildesSk++" style="rounded=1;whiteSpace=wrap;html=1;" vertex="1" parent="1">
          <mxGeometry x="929" y="1050" width="120" height="60" as="geometry" />
        </mxCell>
        <mxCell id="68vHjh__lF7inWfUQHhF-30" value="Jā" style="text;html=1;align=center;verticalAlign=middle;resizable=0;points=[];autosize=1;strokeColor=none;fillColor=none;" vertex="1" parent="1">
          <mxGeometry x="1014" y="800" width="40" height="30" as="geometry" />
        </mxCell>
        <mxCell id="68vHjh__lF7inWfUQHhF-31" value="Nē" style="text;html=1;align=center;verticalAlign=middle;resizable=0;points=[];autosize=1;strokeColor=none;fillColor=none;" vertex="1" parent="1">
          <mxGeometry x="1120" y="880" width="40" height="30" as="geometry" />
        </mxCell>
        <mxCell id="68vHjh__lF7inWfUQHhF-32" value="Jā" style="text;html=1;align=center;verticalAlign=middle;resizable=0;points=[];autosize=1;strokeColor=none;fillColor=none;" vertex="1" parent="1">
          <mxGeometry x="1004" y="948" width="40" height="30" as="geometry" />
        </mxCell>
        <mxCell id="68vHjh__lF7inWfUQHhF-33" value="NepareizasAtbildes [y]==x" style="rounded=1;whiteSpace=wrap;html=1;" vertex="1" parent="1">
          <mxGeometry x="1210" y="1150" width="120" height="60" as="geometry" />
        </mxCell>
        <mxCell id="68vHjh__lF7inWfUQHhF-35" value="Nē" style="text;html=1;align=center;verticalAlign=middle;resizable=0;points=[];autosize=1;strokeColor=none;fillColor=none;" vertex="1" parent="1">
          <mxGeometry x="1170" y="948" width="40" height="30" as="geometry" />
        </mxCell>
        <mxCell id="68vHjh__lF7inWfUQHhF-46" style="edgeStyle=orthogonalEdgeStyle;rounded=0;orthogonalLoop=1;jettySize=auto;html=1;exitX=0.5;exitY=1;exitDx=0;exitDy=0;entryX=0.5;entryY=0;entryDx=0;entryDy=0;" edge="1" parent="1" source="68vHjh__lF7inWfUQHhF-33" target="68vHjh__lF7inWfUQHhF-48">
          <mxGeometry relative="1" as="geometry">
            <mxPoint x="1270" y="1330" as="sourcePoint" />
            <mxPoint x="1200" y="1360" as="targetPoint" />
            <Array as="points">
              <mxPoint x="1270" y="1340" />
              <mxPoint x="1137" y="1340" />
            </Array>
          </mxGeometry>
        </mxCell>
        <mxCell id="68vHjh__lF7inWfUQHhF-39" style="edgeStyle=orthogonalEdgeStyle;rounded=0;orthogonalLoop=1;jettySize=auto;html=1;entryX=0.5;entryY=0;entryDx=0;entryDy=0;" edge="1" parent="1" source="68vHjh__lF7inWfUQHhF-38" target="68vHjh__lF7inWfUQHhF-12">
          <mxGeometry relative="1" as="geometry" />
        </mxCell>
        <mxCell id="68vHjh__lF7inWfUQHhF-38" value="Apraksta izvade" style="rounded=1;whiteSpace=wrap;html=1;" vertex="1" parent="1">
          <mxGeometry x="1057" y="310" width="120" height="60" as="geometry" />
        </mxCell>
        <mxCell id="68vHjh__lF7inWfUQHhF-42" style="edgeStyle=orthogonalEdgeStyle;rounded=0;orthogonalLoop=1;jettySize=auto;html=1;entryX=0.5;entryY=0;entryDx=0;entryDy=0;" edge="1" parent="1" source="68vHjh__lF7inWfUQHhF-40" target="68vHjh__lF7inWfUQHhF-14">
          <mxGeometry relative="1" as="geometry" />
        </mxCell>
        <mxCell id="68vHjh__lF7inWfUQHhF-40" value="Notīrīt ekrānu" style="rounded=1;whiteSpace=wrap;html=1;" vertex="1" parent="1">
          <mxGeometry x="1057" y="500" width="120" height="60" as="geometry" />
        </mxCell>
        <mxCell id="68vHjh__lF7inWfUQHhF-43" value="&lt;font style=&quot;font-size: 25px;&quot;&gt;Klašu diagramma&lt;/font&gt;" style="text;html=1;align=center;verticalAlign=middle;resizable=0;points=[];autosize=1;strokeColor=none;fillColor=none;" vertex="1" parent="1">
          <mxGeometry x="303" y="306.99999999999994" width="220" height="40" as="geometry" />
        </mxCell>
        <mxCell id="68vHjh__lF7inWfUQHhF-44" value="&lt;font style=&quot;font-size: 25px;&quot;&gt;Activity diagramma&lt;/font&gt;" style="text;html=1;align=center;verticalAlign=middle;resizable=0;points=[];autosize=1;strokeColor=none;fillColor=none;" vertex="1" parent="1">
          <mxGeometry x="1002" y="40" width="230" height="40" as="geometry" />
        </mxCell>
        <mxCell id="68vHjh__lF7inWfUQHhF-54" style="edgeStyle=orthogonalEdgeStyle;rounded=0;orthogonalLoop=1;jettySize=auto;html=1;entryX=0.5;entryY=1;entryDx=0;entryDy=0;" edge="1" parent="1" source="68vHjh__lF7inWfUQHhF-48" target="68vHjh__lF7inWfUQHhF-74">
          <mxGeometry relative="1" as="geometry" />
        </mxCell>
        <mxCell id="68vHjh__lF7inWfUQHhF-58" style="edgeStyle=orthogonalEdgeStyle;rounded=0;orthogonalLoop=1;jettySize=auto;html=1;entryX=0.5;entryY=0;entryDx=0;entryDy=0;" edge="1" parent="1" source="68vHjh__lF7inWfUQHhF-48" target="68vHjh__lF7inWfUQHhF-60">
          <mxGeometry relative="1" as="geometry">
            <mxPoint x="1136.5" y="1600" as="targetPoint" />
          </mxGeometry>
        </mxCell>
        <mxCell id="68vHjh__lF7inWfUQHhF-48" value="x&amp;lt;10" style="rhombus;whiteSpace=wrap;html=1;" vertex="1" parent="1">
          <mxGeometry x="1077" y="1400" width="119" height="130" as="geometry" />
        </mxCell>
        <mxCell id="68vHjh__lF7inWfUQHhF-52" style="edgeStyle=orthogonalEdgeStyle;rounded=0;orthogonalLoop=1;jettySize=auto;html=1;entryX=0.5;entryY=1;entryDx=0;entryDy=0;" edge="1" parent="1" source="68vHjh__lF7inWfUQHhF-50" target="68vHjh__lF7inWfUQHhF-51">
          <mxGeometry relative="1" as="geometry" />
        </mxCell>
        <mxCell id="68vHjh__lF7inWfUQHhF-50" value="x++" style="rounded=1;whiteSpace=wrap;html=1;" vertex="1" parent="1">
          <mxGeometry x="770" y="1190" width="120" height="60" as="geometry" />
        </mxCell>
        <mxCell id="68vHjh__lF7inWfUQHhF-53" style="edgeStyle=orthogonalEdgeStyle;rounded=0;orthogonalLoop=1;jettySize=auto;html=1;" edge="1" parent="1" source="68vHjh__lF7inWfUQHhF-51">
          <mxGeometry relative="1" as="geometry">
            <mxPoint x="950" y="570" as="targetPoint" />
            <Array as="points">
              <mxPoint x="830" y="570" />
            </Array>
          </mxGeometry>
        </mxCell>
        <mxCell id="68vHjh__lF7inWfUQHhF-51" value="Notīrīt ekrānu" style="rounded=1;whiteSpace=wrap;html=1;" vertex="1" parent="1">
          <mxGeometry x="770" y="1070" width="120" height="60" as="geometry" />
        </mxCell>
        <mxCell id="68vHjh__lF7inWfUQHhF-55" value="Jā" style="text;html=1;align=center;verticalAlign=middle;resizable=0;points=[];autosize=1;strokeColor=none;fillColor=none;" vertex="1" parent="1">
          <mxGeometry x="1037" y="1430" width="40" height="30" as="geometry" />
        </mxCell>
        <mxCell id="68vHjh__lF7inWfUQHhF-59" value="Nē" style="text;html=1;align=center;verticalAlign=middle;resizable=0;points=[];autosize=1;strokeColor=none;fillColor=none;" vertex="1" parent="1">
          <mxGeometry x="1136" y="1528" width="40" height="30" as="geometry" />
        </mxCell>
        <mxCell id="68vHjh__lF7inWfUQHhF-67" style="edgeStyle=orthogonalEdgeStyle;rounded=0;orthogonalLoop=1;jettySize=auto;html=1;entryX=0.5;entryY=0;entryDx=0;entryDy=0;" edge="1" parent="1" source="68vHjh__lF7inWfUQHhF-60" target="68vHjh__lF7inWfUQHhF-63">
          <mxGeometry relative="1" as="geometry" />
        </mxCell>
        <mxCell id="68vHjh__lF7inWfUQHhF-60" value="Notīrīt ekrānu" style="rounded=1;whiteSpace=wrap;html=1;" vertex="1" parent="1">
          <mxGeometry x="1077" y="1580" width="120" height="60" as="geometry" />
        </mxCell>
        <mxCell id="68vHjh__lF7inWfUQHhF-71" style="edgeStyle=orthogonalEdgeStyle;rounded=0;orthogonalLoop=1;jettySize=auto;html=1;" edge="1" parent="1" source="68vHjh__lF7inWfUQHhF-62" target="68vHjh__lF7inWfUQHhF-72">
          <mxGeometry relative="1" as="geometry">
            <mxPoint x="901.01" y="2350" as="targetPoint" />
          </mxGeometry>
        </mxCell>
        <mxCell id="68vHjh__lF7inWfUQHhF-62" value="Jautājuma [NepareizasAtbildes [y]] izvade" style="rounded=1;whiteSpace=wrap;html=1;" vertex="1" parent="1">
          <mxGeometry x="841.01" y="2240" width="120" height="60" as="geometry" />
        </mxCell>
        <mxCell id="68vHjh__lF7inWfUQHhF-69" style="edgeStyle=orthogonalEdgeStyle;rounded=0;orthogonalLoop=1;jettySize=auto;html=1;entryX=0.5;entryY=0;entryDx=0;entryDy=0;" edge="1" parent="1" source="68vHjh__lF7inWfUQHhF-63" target="68vHjh__lF7inWfUQHhF-64">
          <mxGeometry relative="1" as="geometry" />
        </mxCell>
        <mxCell id="68vHjh__lF7inWfUQHhF-63" value="PareizasAtbildesSk izvade" style="rounded=1;whiteSpace=wrap;html=1;" vertex="1" parent="1">
          <mxGeometry x="1077" y="1660" width="120" height="60" as="geometry" />
        </mxCell>
        <mxCell id="68vHjh__lF7inWfUQHhF-70" style="edgeStyle=orthogonalEdgeStyle;rounded=0;orthogonalLoop=1;jettySize=auto;html=1;entryX=0.5;entryY=0;entryDx=0;entryDy=0;exitX=0.5;exitY=1;exitDx=0;exitDy=0;" edge="1" parent="1" source="68vHjh__lF7inWfUQHhF-81" target="68vHjh__lF7inWfUQHhF-77">
          <mxGeometry relative="1" as="geometry">
            <mxPoint x="1117.51" y="1970" as="sourcePoint" />
          </mxGeometry>
        </mxCell>
        <mxCell id="68vHjh__lF7inWfUQHhF-82" style="edgeStyle=orthogonalEdgeStyle;rounded=0;orthogonalLoop=1;jettySize=auto;html=1;entryX=0.5;entryY=0;entryDx=0;entryDy=0;" edge="1" parent="1" source="68vHjh__lF7inWfUQHhF-64" target="68vHjh__lF7inWfUQHhF-81">
          <mxGeometry relative="1" as="geometry" />
        </mxCell>
        <mxCell id="68vHjh__lF7inWfUQHhF-64" value="NepareizasAtbildesSk&lt;br&gt;izvade" style="rounded=1;whiteSpace=wrap;html=1;" vertex="1" parent="1">
          <mxGeometry x="1077" y="1750" width="120" height="60" as="geometry" />
        </mxCell>
        <mxCell id="68vHjh__lF7inWfUQHhF-68" style="edgeStyle=orthogonalEdgeStyle;rounded=0;orthogonalLoop=1;jettySize=auto;html=1;entryX=0.5;entryY=0;entryDx=0;entryDy=0;" edge="1" parent="1" source="68vHjh__lF7inWfUQHhF-65" target="68vHjh__lF7inWfUQHhF-33">
          <mxGeometry relative="1" as="geometry" />
        </mxCell>
        <mxCell id="68vHjh__lF7inWfUQHhF-65" value="NepareizasAtbildesSk++" style="rounded=1;whiteSpace=wrap;html=1;" vertex="1" parent="1">
          <mxGeometry x="1200" y="1050" width="140" height="70" as="geometry" />
        </mxCell>
        <mxCell id="68vHjh__lF7inWfUQHhF-79" style="edgeStyle=orthogonalEdgeStyle;rounded=0;orthogonalLoop=1;jettySize=auto;html=1;" edge="1" parent="1" source="68vHjh__lF7inWfUQHhF-72">
          <mxGeometry relative="1" as="geometry">
            <mxPoint x="1130" y="1950" as="targetPoint" />
            <Array as="points">
              <mxPoint x="901" y="2360" />
              <mxPoint x="801" y="2360" />
              <mxPoint x="801" y="1950" />
            </Array>
          </mxGeometry>
        </mxCell>
        <mxCell id="68vHjh__lF7inWfUQHhF-72" value="PareizasAtbildes [NepareizasAtbildes[y]] izvade" style="rounded=1;whiteSpace=wrap;html=1;" vertex="1" parent="1">
          <mxGeometry x="833.51" y="2340" width="134" height="70" as="geometry" />
        </mxCell>
        <mxCell id="68vHjh__lF7inWfUQHhF-75" style="edgeStyle=orthogonalEdgeStyle;rounded=0;orthogonalLoop=1;jettySize=auto;html=1;entryX=0.5;entryY=1;entryDx=0;entryDy=0;" edge="1" parent="1" source="68vHjh__lF7inWfUQHhF-74" target="68vHjh__lF7inWfUQHhF-50">
          <mxGeometry relative="1" as="geometry" />
        </mxCell>
        <mxCell id="68vHjh__lF7inWfUQHhF-74" value="y++" style="rounded=1;whiteSpace=wrap;html=1;" vertex="1" parent="1">
          <mxGeometry x="770" y="1294" width="120" height="60" as="geometry" />
        </mxCell>
        <mxCell id="68vHjh__lF7inWfUQHhF-78" style="edgeStyle=orthogonalEdgeStyle;rounded=0;orthogonalLoop=1;jettySize=auto;html=1;entryX=0.5;entryY=0;entryDx=0;entryDy=0;" edge="1" parent="1" source="68vHjh__lF7inWfUQHhF-83" target="68vHjh__lF7inWfUQHhF-62">
          <mxGeometry relative="1" as="geometry" />
        </mxCell>
        <mxCell id="68vHjh__lF7inWfUQHhF-86" style="edgeStyle=orthogonalEdgeStyle;rounded=0;orthogonalLoop=1;jettySize=auto;html=1;entryX=0.5;entryY=0;entryDx=0;entryDy=0;exitX=1;exitY=0.5;exitDx=0;exitDy=0;" edge="1" parent="1" source="68vHjh__lF7inWfUQHhF-77" target="68vHjh__lF7inWfUQHhF-88">
          <mxGeometry relative="1" as="geometry">
            <mxPoint x="1350" y="2320" as="targetPoint" />
          </mxGeometry>
        </mxCell>
        <mxCell id="68vHjh__lF7inWfUQHhF-77" value="y&amp;lt;NepareizasAtbildes[y].length" style="rhombus;whiteSpace=wrap;html=1;" vertex="1" parent="1">
          <mxGeometry x="986" y="2000" width="300" height="180" as="geometry" />
        </mxCell>
        <mxCell id="68vHjh__lF7inWfUQHhF-81" value="y=0" style="rounded=1;whiteSpace=wrap;html=1;" vertex="1" parent="1">
          <mxGeometry x="1076" y="1860" width="120" height="60" as="geometry" />
        </mxCell>
        <mxCell id="68vHjh__lF7inWfUQHhF-84" value="" style="edgeStyle=orthogonalEdgeStyle;rounded=0;orthogonalLoop=1;jettySize=auto;html=1;entryX=0.5;entryY=0;entryDx=0;entryDy=0;" edge="1" parent="1" source="68vHjh__lF7inWfUQHhF-77" target="68vHjh__lF7inWfUQHhF-83">
          <mxGeometry relative="1" as="geometry">
            <mxPoint x="986" y="2090" as="sourcePoint" />
            <mxPoint x="901" y="2240" as="targetPoint" />
          </mxGeometry>
        </mxCell>
        <mxCell id="68vHjh__lF7inWfUQHhF-83" value="y++" style="rounded=1;whiteSpace=wrap;html=1;" vertex="1" parent="1">
          <mxGeometry x="841.01" y="2130" width="120" height="60" as="geometry" />
        </mxCell>
        <mxCell id="68vHjh__lF7inWfUQHhF-85" value="Jā" style="text;html=1;align=center;verticalAlign=middle;resizable=0;points=[];autosize=1;strokeColor=none;fillColor=none;" vertex="1" parent="1">
          <mxGeometry x="946" y="2060" width="40" height="30" as="geometry" />
        </mxCell>
        <mxCell id="68vHjh__lF7inWfUQHhF-87" value="Nē" style="text;html=1;align=center;verticalAlign=middle;resizable=0;points=[];autosize=1;strokeColor=none;fillColor=none;" vertex="1" parent="1">
          <mxGeometry x="1270" y="2060" width="40" height="30" as="geometry" />
        </mxCell>
        <mxCell id="68vHjh__lF7inWfUQHhF-88" value="PēcnosacījumaTests&lt;br&gt;main.cpp&lt;br&gt;Beigšana" style="rounded=1;whiteSpace=wrap;html=1;" vertex="1" parent="1">
          <mxGeometry x="1286" y="2340" width="120" height="60" as="geometry" />
        </mxCell>
        <mxCell id="68vHjh__lF7inWfUQHhF-97" value="" style="endArrow=classic;html=1;rounded=0;" edge="1" parent="1">
          <mxGeometry width="50" height="50" relative="1" as="geometry">
            <mxPoint x="1485" y="630" as="sourcePoint" />
            <mxPoint x="1535" y="630" as="targetPoint" />
          </mxGeometry>
        </mxCell>
        <mxCell id="68vHjh__lF7inWfUQHhF-98" value="" style="endArrow=classic;html=1;rounded=0;" edge="1" parent="1">
          <mxGeometry width="50" height="50" relative="1" as="geometry">
            <mxPoint x="1485" y="710" as="sourcePoint" />
            <mxPoint x="1535" y="710" as="targetPoint" />
          </mxGeometry>
        </mxCell>
        <mxCell id="68vHjh__lF7inWfUQHhF-99" value="" style="endArrow=classic;html=1;rounded=0;" edge="1" parent="1">
          <mxGeometry width="50" height="50" relative="1" as="geometry">
            <mxPoint x="1485" y="780" as="sourcePoint" />
            <mxPoint x="1535" y="780" as="targetPoint" />
          </mxGeometry>
        </mxCell>
        <mxCell id="68vHjh__lF7inWfUQHhF-100" value="" style="endArrow=classic;html=1;rounded=0;" edge="1" parent="1">
          <mxGeometry width="50" height="50" relative="1" as="geometry">
            <mxPoint x="1485" y="870" as="sourcePoint" />
            <mxPoint x="1535" y="870" as="targetPoint" />
          </mxGeometry>
        </mxCell>
        <mxCell id="68vHjh__lF7inWfUQHhF-101" value="" style="endArrow=classic;html=1;rounded=0;" edge="1" parent="1">
          <mxGeometry width="50" height="50" relative="1" as="geometry">
            <mxPoint x="1485" y="940" as="sourcePoint" />
            <mxPoint x="1535" y="940" as="targetPoint" />
          </mxGeometry>
        </mxCell>
        <mxCell id="68vHjh__lF7inWfUQHhF-102" value="" style="endArrow=classic;html=1;rounded=0;" edge="1" parent="1">
          <mxGeometry width="50" height="50" relative="1" as="geometry">
            <mxPoint x="1485" y="1020" as="sourcePoint" />
            <mxPoint x="1535" y="1020" as="targetPoint" />
          </mxGeometry>
        </mxCell>
        <mxCell id="68vHjh__lF7inWfUQHhF-103" value="" style="endArrow=classic;html=1;rounded=0;" edge="1" parent="1">
          <mxGeometry width="50" height="50" relative="1" as="geometry">
            <mxPoint x="1485" y="1090" as="sourcePoint" />
            <mxPoint x="1535" y="1090" as="targetPoint" />
          </mxGeometry>
        </mxCell>
        <mxCell id="68vHjh__lF7inWfUQHhF-104" value="" style="endArrow=classic;html=1;rounded=0;" edge="1" parent="1">
          <mxGeometry width="50" height="50" relative="1" as="geometry">
            <mxPoint x="1485" y="1180" as="sourcePoint" />
            <mxPoint x="1535" y="1180" as="targetPoint" />
          </mxGeometry>
        </mxCell>
        <mxCell id="68vHjh__lF7inWfUQHhF-105" value="" style="endArrow=classic;html=1;rounded=0;" edge="1" parent="1">
          <mxGeometry width="50" height="50" relative="1" as="geometry">
            <mxPoint x="1485" y="1250" as="sourcePoint" />
            <mxPoint x="1535" y="1250" as="targetPoint" />
          </mxGeometry>
        </mxCell>
        <mxCell id="68vHjh__lF7inWfUQHhF-106" value="" style="endArrow=classic;html=1;rounded=0;" edge="1" parent="1">
          <mxGeometry width="50" height="50" relative="1" as="geometry">
            <mxPoint x="1485" y="1330" as="sourcePoint" />
            <mxPoint x="1535" y="1330" as="targetPoint" />
          </mxGeometry>
        </mxCell>
        <mxCell id="68vHjh__lF7inWfUQHhF-107" value="" style="endArrow=classic;html=1;rounded=0;" edge="1" parent="1">
          <mxGeometry width="50" height="50" relative="1" as="geometry">
            <mxPoint x="1485" y="1400" as="sourcePoint" />
            <mxPoint x="1535" y="1400" as="targetPoint" />
          </mxGeometry>
        </mxCell>
        <mxCell id="68vHjh__lF7inWfUQHhF-108" value="" style="endArrow=classic;html=1;rounded=0;" edge="1" parent="1">
          <mxGeometry width="50" height="50" relative="1" as="geometry">
            <mxPoint x="1485" y="1490" as="sourcePoint" />
            <mxPoint x="1535" y="1490" as="targetPoint" />
          </mxGeometry>
        </mxCell>
        <mxCell id="68vHjh__lF7inWfUQHhF-109" value="" style="endArrow=classic;html=1;rounded=0;" edge="1" parent="1">
          <mxGeometry width="50" height="50" relative="1" as="geometry">
            <mxPoint x="1485" y="1540" as="sourcePoint" />
            <mxPoint x="1535" y="1540" as="targetPoint" />
          </mxGeometry>
        </mxCell>
        <mxCell id="68vHjh__lF7inWfUQHhF-110" value="" style="endArrow=classic;html=1;rounded=0;" edge="1" parent="1">
          <mxGeometry width="50" height="50" relative="1" as="geometry">
            <mxPoint x="1485" y="1620" as="sourcePoint" />
            <mxPoint x="1535" y="1620" as="targetPoint" />
          </mxGeometry>
        </mxCell>
        <mxCell id="68vHjh__lF7inWfUQHhF-111" value="" style="endArrow=classic;html=1;rounded=0;" edge="1" parent="1">
          <mxGeometry width="50" height="50" relative="1" as="geometry">
            <mxPoint x="1485" y="1690" as="sourcePoint" />
            <mxPoint x="1535" y="1690" as="targetPoint" />
          </mxGeometry>
        </mxCell>
        <mxCell id="68vHjh__lF7inWfUQHhF-112" value="" style="endArrow=classic;html=1;rounded=0;" edge="1" parent="1">
          <mxGeometry width="50" height="50" relative="1" as="geometry">
            <mxPoint x="1485" y="1780" as="sourcePoint" />
            <mxPoint x="1535" y="1780" as="targetPoint" />
          </mxGeometry>
        </mxCell>
        <mxCell id="68vHjh__lF7inWfUQHhF-113" value="" style="endArrow=classic;html=1;rounded=0;" edge="1" parent="1">
          <mxGeometry width="50" height="50" relative="1" as="geometry">
            <mxPoint x="1485" y="1840" as="sourcePoint" />
            <mxPoint x="1535" y="1840" as="targetPoint" />
          </mxGeometry>
        </mxCell>
        <mxCell id="68vHjh__lF7inWfUQHhF-114" value="" style="endArrow=classic;html=1;rounded=0;" edge="1" parent="1">
          <mxGeometry width="50" height="50" relative="1" as="geometry">
            <mxPoint x="1485" y="1920" as="sourcePoint" />
            <mxPoint x="1535" y="1920" as="targetPoint" />
          </mxGeometry>
        </mxCell>
        <mxCell id="68vHjh__lF7inWfUQHhF-115" value="" style="endArrow=classic;html=1;rounded=0;" edge="1" parent="1">
          <mxGeometry width="50" height="50" relative="1" as="geometry">
            <mxPoint x="1485" y="1990" as="sourcePoint" />
            <mxPoint x="1535" y="1990" as="targetPoint" />
          </mxGeometry>
        </mxCell>
        <mxCell id="68vHjh__lF7inWfUQHhF-116" value="" style="endArrow=classic;html=1;rounded=0;" edge="1" parent="1">
          <mxGeometry width="50" height="50" relative="1" as="geometry">
            <mxPoint x="1485" y="2080" as="sourcePoint" />
            <mxPoint x="1535" y="2080" as="targetPoint" />
          </mxGeometry>
        </mxCell>
        <mxCell id="68vHjh__lF7inWfUQHhF-117" value="" style="endArrow=classic;html=1;rounded=0;" edge="1" parent="1">
          <mxGeometry width="50" height="50" relative="1" as="geometry">
            <mxPoint x="1485" y="2140" as="sourcePoint" />
            <mxPoint x="1535" y="2140" as="targetPoint" />
          </mxGeometry>
        </mxCell>
        <mxCell id="68vHjh__lF7inWfUQHhF-118" value="" style="endArrow=classic;html=1;rounded=0;" edge="1" parent="1">
          <mxGeometry width="50" height="50" relative="1" as="geometry">
            <mxPoint x="1485" y="2220" as="sourcePoint" />
            <mxPoint x="1535" y="2220" as="targetPoint" />
          </mxGeometry>
        </mxCell>
        <mxCell id="68vHjh__lF7inWfUQHhF-119" value="" style="endArrow=classic;html=1;rounded=0;" edge="1" parent="1">
          <mxGeometry width="50" height="50" relative="1" as="geometry">
            <mxPoint x="1485" y="2290" as="sourcePoint" />
            <mxPoint x="1535" y="2290" as="targetPoint" />
          </mxGeometry>
        </mxCell>
        <mxCell id="68vHjh__lF7inWfUQHhF-120" value="" style="endArrow=classic;html=1;rounded=0;" edge="1" parent="1">
          <mxGeometry width="50" height="50" relative="1" as="geometry">
            <mxPoint x="1485" y="2380" as="sourcePoint" />
            <mxPoint x="1535" y="2380" as="targetPoint" />
          </mxGeometry>
        </mxCell>
      </root>
    </mxGraphModel>
  </diagram>
</mxfile>
